<svg width="1167" height="1047" viewBox="0 0 1167 1047" fill="none" xmlns="http://www.w3.org/2000/svg">
<path fill-rule="evenodd" clip-rule="evenodd" d="M580.738 0.24893C677.502 6.37779 724.886 123.63 807.414 174.525C886.775 223.467 992.783 224.051 1055.51 293.039C1122.8 367.047 1156.67 467.441 1164.41 567.169C1172.45 670.855 1164.61 785.486 1100.05 867.017C1036.67 947.057 925.186 966.057 826.85 993.479C746.234 1015.96 664.218 1005.9 580.738 1011.83C490.152 1018.28 392.697 1074.52 313.551 1029.99C234.501 985.505 240.158 868.417 190.72 792.364C137.666 710.746 36.1569 661.649 12.6996 567.169C-12.1652 467.021 -2.63093 348.467 60.185 266.604C122.6 185.264 245.587 191.421 336.857 144.721C422.43 100.935 484.808 -5.82714 580.738 0.24893Z" fill="#FE724E"/>
</svg>
