<svg xmlns="http://www.w3.org/2000/svg" viewBox="0 0 59 59" xml:space="preserve">
  <path d="M44 26a6 6 0 0 0-10 0v1a6 6 0 0 0 10 0v-1zm-5 2-3-1a4 4 0 0 1 6 0l-3 1zM19 23c-2 0-4 1-5 3v1a6 6 0 0 0 10 0v-1c-1-2-3-3-5-3zm0 5-3-1a4 4 0 0 1 6 0l-3 1zM44 40v1H14v-2h-2v1l1 2c2 2 6 2 10 1h12l5 1 5-2 1-2v-1h-2v1z"/>
  <path d="M59 15h-1l-8 1 5-6V9l-5-5a1 1 0 0 0-1 0l-6 9-3-2H19c-3 0-6 5-9 9v2l-3 4c-3 0-7 2-7 8 0 4 4 9 9 13 6 5 13 8 20 8s14-3 20-8c5-4 9-9 9-13 0-6-4-8-7-8l-2-3h9v1a1 1 0 0 0 1-1v-8zM49 27l-9 4-5-1-6-1-6 1-4 1c-3 0-7-3-10-4l2-4 1-1h34l1 1 2 4zm1-20 3 3-7 7-2-2 6-8zm-31 6h21l5 7H13c2-4 4-7 6-7zm37 21c0 6-13 19-27 19S2 40 2 34c0-5 4-6 6-6 1 1 7 5 11 5l5-1 5-1 5 1 6 1c3 0 9-4 10-5 2 0 6 1 6 6zm1-13h-9v-1l-1-1 1-1 9-1v4z"/>
</svg>