<svg width="512" height="512" xmlns="http://www.w3.org/2000/svg">
  <path d="M280 20c-64 0-122 29-160 74 28 0 88 3 97 26-39-13-80-12-109-10a201 201 0 0 0-14 24c32-9 148-4 155 21-76-19-140-9-162-5-9 22-14 47-14 72 0 112 97 270 211 270 58 0 109-40 145-95-31 24-98 57-139 35 82-9 140-51 157-64 25-47 40-100 40-146 0-112-93-202-207-202zm0 152c105 0 190 27 190 61 0 23-4 34-57 45-30 6-96-31-133-31-35 0-87 41-115 36-57-11-75-27-75-50 0-34 85-61 190-61zm84 39c-20 0-42 4-42 10 1 13 18 23 39 22 21 0 18-16 38-23-1-6-17-8-35-9zm-173 3c-18 0-34 3-34 9 19 7 16 23 37 23 21 1 39-9 39-22 0-6-22-10-42-10zm93 83c31 0 56 25 56 25s-28-11-59-11-53 11-53 11 25-25 56-25zM31 411c5 2 8-40 52-61-8-8-12-25-14-35-32 4-55 85-38 96zm57-41c-8 0-18-1-18 17 0 46-43 97-40 98 7 3 50-32 62-60 4-9 11-55-4-55z"/>
</svg>